name rise37.2698peak67.6939fall79.5734.mot
datacolumns 19
datarows 29
range 13.37161700000000 13.41828000000000
endheader
time	ground_force1_vx	ground_force1_vy	ground_force1_vz	ground_force1_px	ground_force1_py	ground_force1_pz	ground_force2_vx	ground_force2_vy	ground_force2_vz	ground_force2_px	ground_force2_py	ground_force2_pz	ground_torque1_x	ground_torque1_y	ground_torque1_z	ground_torque2_x	ground_torque2_y	ground_torque2_z	
13.37161700000000	-41.00034500000000	788.48233700000003	56.81286800000000	0.10208400000000	0.00000000000000	0.11354100000000	-4.48428000000000	34.04470100000000	5.34495500000000	0.31999100000000	0.00000000000000	-0.06457700000000	0.00000000000000	20.77341600000000	0.00000000000000	0.00000000000000	3.02251600000000	0.00000000000000	
13.37328200000000	-41.20210800000000	786.08003900000006	56.60897700000000	0.10155500000000	0.00000000000000	0.11344100000000	-5.07121600000000	40.68413200000000	6.19645600000000	0.32556600000000	0.00000000000000	-0.06457400000000	0.00000000000000	20.66642000000000	0.00000000000000	0.00000000000000	3.56521900000000	0.00000000000000	
13.37494600000000	-41.41713800000000	783.57546900000000	56.38749000000000	0.10103100000000	0.00000000000000	0.11333900000000	-5.58739900000000	47.46140100000000	7.00970300000000	0.33053100000000	0.00000000000000	-0.06459000000000	0.00000000000000	20.56022400000000	0.00000000000000	0.00000000000000	4.09877700000000	0.00000000000000	
13.37662800000000	-41.64573400000000	780.96761400000003	56.14804600000000	0.10051200000000	0.00000000000000	0.11323300000000	-6.01378900000000	54.26452900000000	7.76384200000000	0.33497600000000	0.00000000000000	-0.06462400000000	0.00000000000000	20.45492300000000	0.00000000000000	0.00000000000000	4.60991700000000	0.00000000000000	
13.37828100000000	-41.88814600000000	778.25546099999997	55.89030700000000	0.09999900000000	0.00000000000000	0.11312500000000	-6.33626400000000	61.00086300000000	8.44256200000000	0.33897300000000	0.00000000000000	-0.06467200000000	0.00000000000000	20.35060400000000	0.00000000000000	0.00000000000000	5.08772600000000	0.00000000000000	
13.37994600000000	-42.14458000000000	775.43799500000000	55.61396100000000	0.09949100000000	0.00000000000000	0.11301300000000	-6.54607600000000	67.60168600000000	9.03473300000000	0.34258400000000	0.00000000000000	-0.06473400000000	0.00000000000000	20.24734700000000	0.00000000000000	0.00000000000000	5.52414100000000	0.00000000000000	
13.38161600000000	-42.41519100000000	772.51420299999995	55.31872300000000	0.09898800000000	0.00000000000000	0.11289800000000	-6.63980000000000	74.02413600000000	9.53451000000000	0.34585700000000	0.00000000000000	-0.06480800000000	0.00000000000000	20.14522300000000	0.00000000000000	0.00000000000000	5.91413700000000	0.00000000000000	
13.38328200000000	-42.70008500000000	769.48307599999998	55.00433500000000	0.09849000000000	0.00000000000000	0.11277900000000	-6.61885800000000	80.25067700000000	9.94099700000000	0.34883400000000	0.00000000000000	-0.06489300000000	0.00000000000000	20.04429200000000	0.00000000000000	0.00000000000000	6.25563200000000	0.00000000000000	
13.38495100000000	-42.99931300000000	766.34360200000003	54.67056800000000	0.09799700000000	0.00000000000000	0.11265700000000	-6.48873000000000	86.28658400000000	10.25755600000000	0.35155100000000	0.00000000000000	-0.06498800000000	0.00000000000000	19.94460600000000	0.00000000000000	0.00000000000000	6.54916500000000	0.00000000000000	
13.38661900000000	-43.31286900000000	763.09477700000002	54.31722300000000	0.09751000000000	0.00000000000000	0.11253100000000	-6.25796500000000	92.15596800000000	10.49088600000000	0.35403600000000	0.00000000000000	-0.06509100000000	0.00000000000000	19.84620800000000	0.00000000000000	0.00000000000000	6.79740800000000	0.00000000000000	
13.38828800000000	-43.64069300000000	759.73560099999997	53.94413200000000	0.09702700000000	0.00000000000000	0.11240200000000	-5.93711000000000	97.89695500000001	10.64998900000000	0.35631600000000	0.00000000000000	-0.06520200000000	0.00000000000000	19.74913000000000	0.00000000000000	0.00000000000000	7.00459400000000	0.00000000000000	
13.38995200000000	-43.98266300000000	756.26507900000001	53.55116200000000	0.09654900000000	0.00000000000000	0.11226900000000	-5.53767200000000	103.55654199999999	10.74512100000000	0.35841200000000	0.00000000000000	-0.06532000000000	0.00000000000000	19.65339300000000	0.00000000000000	0.00000000000000	7.17591300000000	0.00000000000000	
13.39161500000000	-44.33859600000000	752.68222800000001	53.13820900000000	0.09607600000000	0.00000000000000	0.11213300000000	-5.07116600000000	109.18561600000000	10.78683100000000	0.36034300000000	0.00000000000000	-0.06544500000000	0.00000000000000	19.55900800000000	0.00000000000000	0.00000000000000	7.31693600000000	0.00000000000000	
13.39328200000000	-44.70824800000000	748.98607200000004	52.70520800000000	0.09560800000000	0.00000000000000	0.11199200000000	-4.54834000000000	114.83450300000000	10.78512900000000	0.36212600000000	0.00000000000000	-0.06557600000000	0.00000000000000	19.46597400000000	0.00000000000000	0.00000000000000	7.43311000000000	0.00000000000000	
13.39494900000000	-45.09130900000000	745.17565200000001	52.25212600000000	0.09514400000000	0.00000000000000	0.11184800000000	-3.97858500000000	120.54930800000000	10.74884900000000	0.36377400000000	0.00000000000000	-0.06571200000000	0.00000000000000	19.37428000000000	0.00000000000000	0.00000000000000	7.52934600000000	0.00000000000000	
13.39662000000000	-45.48740400000000	741.25002199999994	51.77896700000000	0.09468500000000	0.00000000000000	0.11169900000000	-3.36955400000000	126.36918200000000	10.68520700000000	0.36530000000000	0.00000000000000	-0.06585400000000	0.00000000000000	19.28390200000000	0.00000000000000	0.00000000000000	7.60973300000000	0.00000000000000	
13.39828500000000	-45.89609200000000	737.20825600000001	51.28577400000000	0.09423100000000	0.00000000000000	0.11154700000000	-2.72698000000000	132.32456900000000	10.59955300000000	0.36671400000000	0.00000000000000	-0.06599900000000	0.00000000000000	19.19480600000000	0.00000000000000	0.00000000000000	7.67735200000000	0.00000000000000	
13.39995100000000	-46.31686300000000	733.04944799999998	50.77262400000000	0.09378100000000	0.00000000000000	0.11139100000000	-2.05467300000000	138.43639500000000	10.49531800000000	0.36802800000000	0.00000000000000	-0.06614900000000	0.00000000000000	19.10694300000000	0.00000000000000	0.00000000000000	7.73421300000000	0.00000000000000	
13.40162200000000	-46.74913700000000	728.77271699999994	50.23963400000000	0.09333500000000	0.00000000000000	0.11123000000000	-1.35466300000000	144.71607100000000	10.37410100000000	0.36924700000000	0.00000000000000	-0.06630300000000	0.00000000000000	19.02025400000000	0.00000000000000	0.00000000000000	7.78128100000000	0.00000000000000	
13.40328700000000	-47.19226700000000	724.37720800000000	49.68696100000000	0.09289400000000	0.00000000000000	0.11106600000000	-0.62744400000000	151.16618099999999	10.23588900000000	0.37038100000000	0.00000000000000	-0.06646000000000	0.00000000000000	18.93466900000000	0.00000000000000	0.00000000000000	7.81857400000000	0.00000000000000	
13.40495000000000	-47.64553400000000	719.86209599999995	49.11479700000000	0.09245600000000	0.00000000000000	0.11089700000000	0.12769600000000	157.78166899999999	10.07934700000000	0.37143600000000	0.00000000000000	-0.06662100000000	0.00000000000000	18.85010300000000	0.00000000000000	0.00000000000000	7.84532500000000	0.00000000000000	
13.40662400000000	-48.10815000000000	715.22659099999998	48.52337800000000	0.09202300000000	0.00000000000000	0.11072500000000	0.91232900000000	164.55133799999999	9.90216400000000	0.37241600000000	0.00000000000000	-0.06678400000000	0.00000000000000	18.76646000000000	0.00000000000000	0.00000000000000	7.86016600000000	0.00000000000000	
13.40828200000000	-48.57925600000000	710.46993899999995	47.91297700000000	0.09159300000000	0.00000000000000	0.11054800000000	1.72852700000000	171.45950900000000	9.70139900000000	0.37332800000000	0.00000000000000	-0.06695000000000	0.00000000000000	18.68363300000000	0.00000000000000	0.00000000000000	7.86133300000000	0.00000000000000	
13.40995400000000	-49.05792200000000	705.59142599999996	47.28390500000000	0.09116700000000	0.00000000000000	0.11036700000000	2.57853400000000	178.48766699999999	9.47381900000000	0.37417500000000	0.00000000000000	-0.06711800000000	0.00000000000000	18.60150000000000	0.00000000000000	0.00000000000000	7.84685600000000	0.00000000000000	
13.41162100000000	-49.54315000000000	700.59038399999997	46.63651600000000	0.09074400000000	0.00000000000000	0.11018200000000	3.46448300000000	185.61599899999999	9.21619800000000	0.37496200000000	0.00000000000000	-0.06728800000000	0.00000000000000	18.51993000000000	0.00000000000000	0.00000000000000	7.81474100000000	0.00000000000000	
13.41328300000000	-50.03387400000000	695.46619099999998	45.97120200000000	0.09032500000000	0.00000000000000	0.10999300000000	4.38816600000000	192.82470599999999	8.92556200000000	0.37569200000000	0.00000000000000	-0.06746100000000	0.00000000000000	18.43877900000000	0.00000000000000	0.00000000000000	7.76311900000000	0.00000000000000	
13.41495600000000	-50.52895700000000	690.21828300000004	45.28839300000000	0.08990800000000	0.00000000000000	0.10980100000000	5.35087400000000	200.09506300000001	8.59937100000000	0.37636700000000	0.00000000000000	-0.06763500000000	0.00000000000000	18.35789100000000	0.00000000000000	0.00000000000000	7.69035600000000	0.00000000000000	
13.41662300000000	-51.02719900000000	684.84614999999997	44.58855800000000	0.08949500000000	0.00000000000000	0.10960400000000	6.35329300000000	207.41017900000000	8.23564700000000	0.37699000000000	0.00000000000000	-0.06781100000000	0.00000000000000	18.27710100000000	0.00000000000000	0.00000000000000	7.59514000000000	0.00000000000000	
13.41828000000000	-51.52733400000000	679.34935199999995	43.87220700000000	0.08908300000000	0.00000000000000	0.10940300000000	7.39546600000000	214.75547900000001	7.83303500000000	0.37756500000000	0.00000000000000	-0.06798800000000	0.00000000000000	18.19622900000000	0.00000000000000	0.00000000000000	7.47651900000000	0.00000000000000	
